{"title":"Jason Mraz Y Ximena Sarinana - Lucky (Suerte) (h264/mp4)","uid":7080466,"size":87671794,"categoryP":"video","categoryS":"music_videos","magnet":"?xt=urn:btih:4685071dfa6ffa2eb1cd46bee3cc00c57abcce65&amp;dn=Jason+Mraz+Y+Ximena+Sarinana+-+Lucky+%28Suerte%29+%28h264%2Fmp4%29&amp;tr=udp%3A%2F%2Ftracker.openbittorrent.com%3A80&amp;tr=udp%3A%2F%2Fopen.demonii.com%3A1337&amp;tr=udp%3A%2F%2Ftracker.coppersurfer.tk%3A6969&amp;tr=udp%3A%2F%2Fexodus.desync.com%3A6969","seeders":2,"leechers":1,"uploader":"MusicVideos-HQ","files":1,"time":1331008138,"description":"General\n\n\nFormat                           : MPEG-4\nFormat profile                   : Base Media\nCodec ID                         : isom\nFile size                        : 83.6 MiB\nDuration                         : 3mn 21s\nOverall bit rate                 : 3 482 Kbps\nEncoded date                     : UTC 2012-03-03 16:11:24\nTagged date                      : UTC 2012-03-03 16:11:24\n\nVideo\nID                               : 1\nFormat                           : AVC\nFormat/Info                      : Advanced Video Codec\nFormat profile                   : &lt;a class=&quot;__cf_email__&quot; href=&quot;/cdn-cgi/l/email-protection&quot; data-cfemail=&quot;6f270608072f235c415f&quot;&gt;[email&amp;#160;protected]&lt;/a&gt;&lt;script cf-hash='f9e31' type=&quot;text/javascript&quot;&gt;\n/* &lt;![CDATA[ */!function(){try{var t=&quot;currentScript&quot;in document?document.currentScript:function(){for(var t=document.getElementsByTagName(&quot;script&quot;),e=t.length;e--;)if(t[e].getAttribute(&quot;cf-hash&quot;))return t[e]}();if(t&amp;&amp;t.previousSibling){var e,r,n,i,c=t.previousSibling,a=c.getAttribute(&quot;data-cfemail&quot;);if(a){for(e=&quot;&quot;,r=parseInt(a.substr(0,2),16),n=2;a.length-n;n+=2)i=parseInt(a.substr(n,2),16)^r,e+=String.fromCharCode(i);e=document.createTextNode(e),c.parentNode.replaceChild(e,c)}}}catch(u){}}();/* ]]&gt; */&lt;/script&gt;\nFormat settings, CABAC           : Yes\nFormat settings, ReFrames        : 2 frames\nCodec ID                         : avc1\nCodec ID/Info                    : Advanced Video Coding\nDuration                         : 3mn 21s\nBit rate mode                    : Variable\nBit rate                         : 3 437 Kbps\nMaximum bit rate                 : 11.7 Mbps\nWidth                            : 720 pixels\nHeight                           : 480 pixels\nDisplay aspect ratio             : 4:3\nOriginal display aspect ratio    : 4:3\nFrame rate mode                  : Constant\nFrame rate                       : 29.970 fps\nStandard                         : NTSC\nColor space                      : YUV\nChroma subsampling               : 4:2:0\nBit depth                        : 8 bits\nScan type                        : Progressive\nBits/(Pixel*Frame)               : 0.332\nStream size                      : 82.0 MiB (98%)\n\n\nAudio\nID                               : 2\nFormat                           : AAC\nFormat/Info                      : Advanced Audio Codec\nFormat profile                   : LC\nCodec ID                         : 40\nDuration                         : 3mn 21s\nBit rate mode                    : Variable\nBit rate                         : 60.8 Kbps\nMaximum bit rate                 : 76.5 Kbps\nChannel(s)                       : 2 channels\nChannel positions                : Front: L R\nSampling rate                    : 48.0 KHz\nCompression mode                 : Lossy\nStream size                      : 1.46 MiB (2%)\n\n\n","torrent":{"xt":"urn:btih:4685071dfa6ffa2eb1cd46bee3cc00c57abcce65","amp;dn":"Jason+Mraz+Y+Ximena+Sarinana+-+Lucky+%28Suerte%29+%28h264%2Fmp4%29","amp;tr":["udp%3A%2F%2Ftracker.openbittorrent.com%3A80","udp%3A%2F%2Fopen.demonii.com%3A1337","udp%3A%2F%2Ftracker.coppersurfer.tk%3A6969","udp%3A%2F%2Fexodus.desync.com%3A6969"],"infoHash":"4685071dfa6ffa2eb1cd46bee3cc00c57abcce65","infoHashBuffer":{"type":"Buffer","data":[70,133,7,29,250,111,250,46,177,205,70,190,227,204,0,197,122,188,206,101]},"announce":[],"urlList":[]}}